<svg id="Layer_1" data-name="Layer 1" xmlns="http://www.w3.org/2000/svg" xmlns:xlink="http://www.w3.org/1999/xlink" viewBox="0 0 408.69 369.05"><defs><style>.cls-1{fill:#131212;}.cls-2{fill:#010101;}.cls-3{fill:url(#linear-gradient);}.cls-4{fill:url(#New_Gradient_Swatch_1);}.cls-5{fill:url(#New_Gradient_Swatch_1-2);}.cls-6{fill:url(#linear-gradient-2);}.cls-7{fill:url(#linear-gradient-3);}.cls-8{fill:url(#radial-gradient);}.cls-9{fill:#b6b5b5;}.cls-10{fill:#fff;}.cls-11{fill:url(#New_Gradient_Swatch_1-3);}.cls-12{fill:url(#New_Gradient_Swatch_1-4);}</style><linearGradient id="linear-gradient" x1="349.66" y1="239.4" x2="361.6" y2="547.05" gradientUnits="userSpaceOnUse"><stop offset="0" stop-color="#5c0831"/><stop offset="0.1" stop-color="#700f40"/><stop offset="0.24" stop-color="#83164e"/><stop offset="0.4" stop-color="#901a58"/><stop offset="0.6" stop-color="#981d5d"/><stop offset="1" stop-color="#9a1e5f"/><stop offset="1" stop-color="#9c1e61"/><stop offset="1" stop-color="#9e1f63"/></linearGradient><linearGradient id="New_Gradient_Swatch_1" x1="260.19" y1="252.95" x2="281.57" y2="252.95" gradientUnits="userSpaceOnUse"><stop offset="0" stop-color="#5c0831"/><stop offset="1" stop-color="#9a1e5f"/><stop offset="1" stop-color="#9c1e61"/><stop offset="1" stop-color="#9e1f63"/></linearGradient><linearGradient id="New_Gradient_Swatch_1-2" x1="133.71" y1="441.71" x2="152.41" y2="441.71" xlink:href="#New_Gradient_Swatch_1"/><linearGradient id="linear-gradient-2" x1="135.02" y1="341.94" x2="138.62" y2="434.74" gradientUnits="userSpaceOnUse"><stop offset="0.17" stop-color="#5c0831"/><stop offset="0.18" stop-color="#5f0933"/><stop offset="0.25" stop-color="#751143"/><stop offset="0.34" stop-color="#861750"/><stop offset="0.44" stop-color="#911b59"/><stop offset="0.59" stop-color="#981d5e"/><stop offset="1" stop-color="#9a1e5f"/><stop offset="1" stop-color="#9c1e61"/><stop offset="1" stop-color="#9e1f63"/></linearGradient><linearGradient id="linear-gradient-3" x1="184.09" y1="243.08" x2="442.36" y2="243.08" gradientUnits="userSpaceOnUse"><stop offset="0" stop-color="#5c0831"/><stop offset="0.21" stop-color="#8d1b3d"/><stop offset="0.29" stop-color="#921c4b"/><stop offset="0.4" stop-color="#971d56"/><stop offset="0.56" stop-color="#991e5d"/><stop offset="1" stop-color="#9a1e5f"/><stop offset="1" stop-color="#9c1e61"/><stop offset="1" stop-color="#9e1f63"/></linearGradient><radialGradient id="radial-gradient" cx="285.43" cy="232.62" r="33.39" gradientUnits="userSpaceOnUse"><stop offset="0" stop-color="#fff"/><stop offset="1"/></radialGradient><linearGradient id="New_Gradient_Swatch_1-3" x1="316.55" y1="157.52" x2="330.09" y2="157.52" xlink:href="#New_Gradient_Swatch_1"/><linearGradient id="New_Gradient_Swatch_1-4" x1="356.54" y1="176" x2="373.79" y2="176" xlink:href="#New_Gradient_Swatch_1"/></defs><title>بطحاء red</title><path class="cls-1" d="M250.34,299.49" transform="translate(-96.85 -98.21)"/><polygon class="cls-2" points="284.3 204.47 274.54 216.68 284.3 227.2 295.32 215.84 284.3 204.47"/><text x="-96.85" y="-98.21"/><path class="cls-3" d="M494.33,229.35c.7-2-14.69-30.48-19.17-34.74-.06-.08-6.54-9-8.25-11.16a266.87,266.87,0,0,0-20.44-23.15c-9.21-9.31-18.91-22.67-29.05-35.56,1.62,9.32,2,26,5.08,34.33,11.3,30.42,23.93,56.39,27.89,55.91l.83-.52c-.36-2.44-6.29-17.34-7.8-20.7q-3.33-7.22-3.75-8.43-2.34-6.71-5-15.32c10.94,10.37,11.54,10.88,15.57,15.78,1.72,2.13,8.66,11.31,10.07,13.41.2.44,7.9,13.34,8.14,13.81,6,12,5.71,15.54,8.51,22.45,7.14,22.18,11.33,38.59,2.82,68-8.69,41.37-38.85,56.76-91,65.54-40.06,6.74-110.34-1.73-129,9.17-10.84,5.05-45.2,25.82-56.73,63,19.33-29.08,17.84-29.36,50.11-45,32.94-15.93,61.68-6.92,103.08-10,43.67-2,134.12-4.43,147.79-90.06C507.62,273.27,505.13,251.32,494.33,229.35Z" transform="translate(-96.85 -98.21)"/><path class="cls-4" d="M272,257.71q-5.73,0-5.73-21.53a25.34,25.34,0,0,0-6.05,16.35c0,6.07,1.15,10.48,3.39,13.33,1,.81,1.9,1.62,2.81,2.43a11.6,11.6,0,0,0,5.79,1.42q9.39,0,9.39-10.86a37.08,37.08,0,0,0-.84-8Q275.72,257.71,272,257.71Z" transform="translate(-96.85 -98.21)"/><text x="-96.85" y="-98.21"/><path class="cls-5" d="M144.73,467.26a7.05,7.05,0,0,0,5.72-2.71,9.8,9.8,0,0,0,2-6.18,31.75,31.75,0,0,0-.68-6.53q-6,8.22-9.31,8.22-5.71,0-5.72-17.2,0-4.5-.17-13.39t-.17-13.31Q133.7,424,133.71,439q0,12.29,1,17.12Q137,467.26,144.73,467.26Z" transform="translate(-96.85 -98.21)"/><path class="cls-6" d="M148.89,385.83c1.31,11.19,5.28,18,5.91,23.56q1.78,14.67,1.79,15.68l.94.34q-1.11-20.43-3.42-43.73,14.87-19.32,21.78-23.14a17,17,0,0,0,1.28-6.61c0-4.46-.31-6.81-.94-7l-1.62.59A124.14,124.14,0,0,0,158.47,362a18.37,18.37,0,0,1-6,2.2q-1.37-11.52-2.31-14.32-2.81-8.14-10.33-8.14-6.32,0-15.11,4.66-9.22,4.92-11.53,10.26-.85,1.95-.86,12.46v6.27q0,3.3,7,5.68a31,31,0,0,0,10,1.94c2.22,0,6.12-.3,11.7-.93-5.41,8.31-14.89,5.63-33.59,33L96.85,436.36C108.56,414.06,135.28,393,148.89,385.83Zm-20.4-18.22c-4.49,0-7.57-.82-9.22-2.46l-.17-.51c0-1.52,1.93-3.1,5.81-4.74,3.47-1.53,6.15-2.29,8-2.29q6.4,0,9.06,1,3.93,1.61,5.63,6.69Q142.51,367.62,128.49,367.61Z" transform="translate(-96.85 -98.21)"/><path class="cls-7" d="M435.88,214.17l-6.31-20.46c-1.23-5.12-5.27-12.68-7.83-19-.49-1.27-4.55-10.87-12.13-25L399,133.83c-9.6-13.14-11-16.93-19.2-35.62-.28,3.93-.58,14.89-.61,14.89,0,5.36,2.79,19.93,3.71,22.78l3.22,13.36c3.67,8.19,8.75,25.48,10.55,30.09.25.45.52.88.81,1.31s.57-.18.86.23c-.53-2.06-1.14-3.72-1.87-7.16h0v-.06c-.3-1.41-.6-2.84-.92-4.32h-.05l-1.91-8.47-.05,0c-3.89-14.47-6-23.37-6.32-26.56l.31-.77c4.34,5.47,7.71,12.24,11.89,19.12l3.79,7.2,4.55,9.48c4,8.15,5.63,14.3,7.58,20.08,2.39,7,3.4,14.43,5.68,26.15v16.29c-4,19.14-1.39,12.21-7.64,23.65-4.92,9-11.69,13.62-21.72,15.25-2.63,0-7.62.31-7.62.31v-5.88c-.62-5.68-4.82-5.81-8-1.25-4.77,6.77-13.28,10-21.57,12.48-.78,0-1.57,0-2.38,0a15.34,15.34,0,0,1-11.63-4.94c-3.83-3.79-3.34-7.82-4.59-11.75.84-1,3.26-3.56,15.92-15.92a70.14,70.14,0,0,0,16.67-25.39,23.34,23.34,0,0,0,1.52-7.95c0-7.94-4-12.39-9-12.39q-6,0-17.1,6.72-10,6.1-14.91,11.59,0-16.55-1.26-20.59-12.51-40.37-20.75-40.36-3.65,0-6.15,12.31a82.72,82.72,0,0,0-2,16.15,106.7,106.7,0,0,0,.52,12.73l1.14.93q1.16-7,2.19-14,2.21-11.18,4.7-11.18,1.56,0,6.57,9.21,7.4,13.45,9.07,33.12,0,.62.84,34.67c-10.78,12.08-16.14,14.65-22.51,17.83-1.91.77-2.88,1.28-5.07,2.25s-5.91,2.75-11.77,5.18L258,285.8q-9.47,4.57-14.07,11.65T234.64,322Q230,339.47,230,346.29c0,1.65.59,2.43,1.76,2.35Q255.27,335,266.9,327.81l.67.24c-2.34,6-9,13.73-20,24.08-8.76,8.23-11.44,11.11-18.18,15.28-6.21,2.13-8,.62-9.48-.38-3.58-1.53-6.09-3.52-8-9.15-7-20.73-9.39-47.89,16.76-80.26,25-31,34.85-70.73,35.49-82.53-.6-3.52,4.11-39.52-35.68-77.74,19.13,37,14.9,26,21.54,51.8,7.25,28.14,1.92,49.12-25.4,86.76-26.68,36.75-55.11,91-32,117.88,12.68,14.75,25.61,15.39,34,13.27a35.51,35.51,0,0,0,9.31-3c23.67-10.2,28.72-19.3,29.72-21.31,6.06-6.83,17.2-18.39,22.14-33.2,2.27-6.83,8-16.71,6.82-24.64,0,0-23.45,4.06-31.57,7.06-8.6,3.18-13.34,5.08-17,5.87q6.63-11.31,29.22-19.3c17-6.09,27.94-11.3,31.71-14.26,10.38-6.32,18.26-14.16,21.78-18.78,3,9.11,5.75,15.11,9.58,19.39,5.14,5.66,12.18,9,20.43,7.3,1.45-.29,2.74-.61,3.91-.94,4.95-1.23,10-4.05,16.23-9.05.76,1.13,4,2.73,7.47,4.05a.36.36,0,0,1,0,.1,24.82,24.82,0,0,0,3,.95,30.58,30.58,0,0,0,4.84,1.27,51.83,51.83,0,0,0,10,.41C438.66,281.12,451.27,260.91,435.88,214.17ZM332.05,237.43c0-4.46.71-8.09,2.66-10.23,2.29-2.48,4.17-7.11,10.23-11A26.78,26.78,0,0,1,360.47,212L360,214.9q0,1.24-1.87,4.45c-6.61,11.32-12.61,18.14-26.65,27.31Z" transform="translate(-96.85 -98.21)"/><ellipse class="cls-8" cx="285.43" cy="232.62" rx="33.81" ry="32.97"/><path class="cls-9" d="M361.87,330c0-11.68,9.06-21.14,20.23-21.14s20.22,9.46,20.22,21.14-9.05,21.14-20.22,21.14-20.23-9.47-20.23-21.14" transform="translate(-96.85 -98.21)"/><ellipse class="cls-10" cx="285.26" cy="230.65" rx="9.91" ry="10.35"/><ellipse class="cls-2" cx="285.2" cy="231.16" rx="3.42" ry="3.58"/><ellipse class="cls-2" cx="285.13" cy="224.06" rx="1.38" ry="1.44"/><ellipse class="cls-2" cx="291.86" cy="230.65" rx="1.38" ry="1.44"/><ellipse class="cls-2" cx="279.27" cy="231.07" rx="1.38" ry="1.44"/><ellipse class="cls-2" cx="280.65" cy="226.64" rx="1.38" ry="1.44"/><ellipse class="cls-2" cx="285.6" cy="237.54" rx="1.38" ry="1.44"/><ellipse class="cls-2" cx="280.65" cy="235.5" rx="1.38" ry="1.44"/><ellipse class="cls-2" cx="289.92" cy="235.5" rx="1.38" ry="1.44"/><ellipse class="cls-2" cx="289.92" cy="225.8" rx="1.38" ry="1.44"/><path class="cls-11" d="M317.73,160.8c-2.71-5.36-.15-9.24,1.86-10.25,2.2-1.11,6.79-1.2,9.71,4.6a7,7,0,0,1-2.85,9.25C322.81,166.24,319.39,164.11,317.73,160.8Zm3.07-6.17c-1.24.62-2.72,2.69-1.73,4.66.72,1.44,2.79,2.68,5.62,1.25,2.49-1.26,3.37-4,3.08-4.62S324.16,152.94,320.8,154.63Z" transform="translate(-96.85 -98.21)"/><path class="cls-12" d="M373.79,168.45q0,9.53-3.85,13.79-1.15,1.32-13.4,10,10.57-12.92,10.58-21.3,0-7.32-10.58-9.16l11.66-2.09Q373.78,164.26,373.79,168.45Z" transform="translate(-96.85 -98.21)"/></svg>